<svg xmlns="http://www.w3.org/2000/svg" viewBox="0 0 121.61 121.61"><defs><style>.cls-1{fill:#50a3c7;}.cls-2{fill:#fff;}</style></defs><title>citas</title><g id="Layer_2" data-name="Layer 2"><g id="Layer_1-2" data-name="Layer 1"><circle class="cls-1" cx="60.8" cy="60.8" r="60.8"/><path class="cls-2" d="M32.91,33.09v-9.3a2.32,2.32,0,1,1,4.65,0v9.3a2.32,2.32,0,1,1-4.65,0Zm39.52,2.32a2.32,2.32,0,0,0,2.32-2.32v-9.3a2.32,2.32,0,1,0-4.65,0v9.3a2.32,2.32,0,0,0,2.32,2.32ZM98,77.25a18.6,18.6,0,1,1-18.6-18.6A18.6,18.6,0,0,1,98,77.25Zm-4.65,0A13.95,13.95,0,1,0,79.4,91.2,14,14,0,0,0,93.35,77.25ZM42.21,49.36h-9.3v9.3h9.3ZM32.91,72.6h9.3V63.3h-9.3ZM46.86,58.66h9.3v-9.3h-9.3Zm0,13.95h9.3V63.3h-9.3Zm-18.6,4.19V44.71H79.4V54H84V35.87a5.07,5.07,0,0,0-5-5.11H77.07v2.32a4.65,4.65,0,1,1-9.3,0V30.76H39.88v2.32a4.65,4.65,0,1,1-9.3,0V30.76H28.65a5.07,5.07,0,0,0-5,5.11V76.79a5.08,5.08,0,0,0,5,5.11H56.15V77.25H28.65a.44.44,0,0,1-.39-.46ZM70.1,58.66v-9.3H60.8v9.3Zm16.27,18.6h-7v-7a2.32,2.32,0,1,0-4.65,0v9.3a2.32,2.32,0,0,0,2.32,2.32h9.3a2.32,2.32,0,0,0,0-4.65Zm0,0"/></g></g></svg>