<svg xmlns="http://www.w3.org/2000/svg" viewBox="0 0 40.08 23.91"><defs><style>.cls-1{fill:#4d4d4d;}</style></defs><title>ver</title><g id="Layer_2" data-name="Layer 2"><g id="Layer_1-2" data-name="Layer 1"><g id="RBDKZL"><path class="cls-1" d="M40.08,12.49c-3.59,4.76-7.91,8.61-13.71,10.38-8.72,2.67-16.12,0-22.55-6C2.63,15.76,1.62,14.44.53,13.2a1.71,1.71,0,0,1-.07-2.41C5.25,4.59,11.21.39,19.29,0A21.47,21.47,0,0,1,34.8,5.79a77.1,77.1,0,0,1,5.28,5.63ZM19.84,20.37a8.52,8.52,0,0,0,8.62-8.22,8.48,8.48,0,0,0-8.63-8.61,8.42,8.42,0,0,0,0,16.83Z"/><path class="cls-1" d="M20,7.41a4.62,4.62,0,0,1,4.52,4.52,4.68,4.68,0,0,1-4.37,4.56A4.54,4.54,0,1,1,20,7.41Z"/></g></g></g></svg>