<svg xmlns="http://www.w3.org/2000/svg" xmlns:xlink="http://www.w3.org/1999/xlink" viewBox="0 0 121.61 121.61"><defs><style>.cls-1{fill:none;}.cls-2{fill:#50a3c7;}.cls-3{clip-path:url(#clip-path);}.cls-4{fill:#fff;fill-rule:evenodd;}</style><clipPath id="clip-path"><rect class="cls-1" x="22.61" y="23.82" width="73.89" height="73.96"/></clipPath></defs><title>datos</title><g id="Layer_2" data-name="Layer 2"><g id="Layer_1-2" data-name="Layer 1"><circle class="cls-2" cx="60.8" cy="60.8" r="60.8"/><g class="cls-3"><path class="cls-4" d="M96,56.55a2.4,2.4,0,0,0-2.37-1.81,8.13,8.13,0,0,1-5.56-14.15,2,2,0,0,0,.22-2.78,36.43,36.43,0,0,0-5.83-5.89,2.05,2.05,0,0,0-2.8.23,8.49,8.49,0,0,1-9.18,2.06,8.18,8.18,0,0,1-5-8,2,2,0,0,0-1.81-2.15,36.73,36.73,0,0,0-8.28,0,2,2,0,0,0-1.82,2.11,8.19,8.19,0,0,1-5,7.85,8.51,8.51,0,0,1-9.11-2.08,2.05,2.05,0,0,0-2.78-.23,36.59,36.59,0,0,0-6,5.89,2,2,0,0,0,.22,2.8A8.16,8.16,0,0,1,33,49.57a8.51,8.51,0,0,1-8,5,2,2,0,0,0-2.13,1.81,36.87,36.87,0,0,0,0,8.37,2.44,2.44,0,0,0,2.41,1.81,8.07,8.07,0,0,1,7.58,5,8.19,8.19,0,0,1-2.06,9.1,2,2,0,0,0-.22,2.77,36.54,36.54,0,0,0,5.82,5.89,2,2,0,0,0,2.8-.22,8.47,8.47,0,0,1,9.18-2.06,8.17,8.17,0,0,1,5,8,2,2,0,0,0,1.81,2.15,36.67,36.67,0,0,0,8.28,0,2,2,0,0,0,1.82-2.11,8.18,8.18,0,0,1,5-7.85,8.5,8.5,0,0,1,9.12,2.07,2.06,2.06,0,0,0,2.78.23,36.68,36.68,0,0,0,6-5.89,2,2,0,0,0-.22-2.8,8.16,8.16,0,0,1-2.06-9.18,8.24,8.24,0,0,1,7.53-5h.45A2,2,0,0,0,96,64.92a36.74,36.74,0,0,0,0-8.37ZM59.48,73A12.28,12.28,0,1,1,71.76,60.72,12.29,12.29,0,0,1,59.48,73Zm0,0"/></g></g></g></svg>