<svg xmlns="http://www.w3.org/2000/svg" viewBox="0 0 121.61 121.61"><defs><style>.cls-1{fill:#50a3c7;}.cls-2{fill:#fff;}</style></defs><title>facturacion</title><g id="Layer_2" data-name="Layer 2"><g id="Layer_1-2" data-name="Layer 1"><circle class="cls-1" cx="60.8" cy="60.8" r="60.8"/><path class="cls-2" d="M33.14,22.61v68h42.5l17-17v-51Zm42.5,62v-11h11ZM88.39,69.36H84.14V65.11H79.89v4.25h-8.5v17h-34V26.86h51ZM84.14,39.61H41.64v-8.5h42.5Zm-17,12.75H41.64V48.11h25.5Zm12.75-4.25h4.25v4.25H79.89Zm0,8.5h4.25v4.25H79.89Zm-8.5,4.25H41.64V56.61H71.39Zm-12.75,8.5h-17V65.11h17Zm4.25,8.5H41.64V73.61H62.89Zm0,0"/></g></g></svg>