<svg xmlns="http://www.w3.org/2000/svg" viewBox="0 0 430.64 116"><defs><style>.cls-1{fill:#fff;}.cls-2,.cls-3,.cls-4,.cls-5{fill:#c1272d;}.cls-2{opacity:0.4;}.cls-3{opacity:0.6;}.cls-4{opacity:0.8;}</style></defs><title>logo-rojo-blanco</title><g id="Layer_2" data-name="Layer 2"><g id="Layer_1-2" data-name="Layer 1"><path class="cls-1" d="M215.55,59.13a46.25,46.25,0,0,1-2.71,16.29,35.18,35.18,0,0,1-7.62,12.31,33,33,0,0,1-11.76,7.79,41,41,0,0,1-15.19,2.71H149.78V20.09h28.49a41,41,0,0,1,15.19,2.71,33,33,0,0,1,11.76,7.79,35.19,35.19,0,0,1,7.62,12.31A46.09,46.09,0,0,1,215.55,59.13Zm-5.85,0a43.61,43.61,0,0,0-2.26-14.58,30.64,30.64,0,0,0-6.38-10.82A27.11,27.11,0,0,0,191.14,27a34.36,34.36,0,0,0-12.87-2.32H155.47v69h22.81a34.36,34.36,0,0,0,12.87-2.32,27.1,27.1,0,0,0,9.91-6.74,30.62,30.62,0,0,0,6.38-10.82A43.79,43.79,0,0,0,209.7,59.13Z"/><path class="cls-1" d="M237.69,62.89V98.23h-5.63V20.09H252q13.53,0,20.21,5.22t6.68,15.32a21,21,0,0,1-1.55,8.17,19.16,19.16,0,0,1-4.45,6.49,23.71,23.71,0,0,1-7,4.58,31.07,31.07,0,0,1-9.22,2.35,9,9,0,0,1,2.37,2.21L286,98.23H281a3.24,3.24,0,0,1-1.52-.33,4,4,0,0,1-1.24-1.1l-25-31.7a5.56,5.56,0,0,0-2-1.71,8.42,8.42,0,0,0-3.34-.5Zm0-4.2h13.58a32.17,32.17,0,0,0,9.3-1.24,20,20,0,0,0,7-3.56,15.38,15.38,0,0,0,4.33-5.58A17.45,17.45,0,0,0,273.37,41q0-8.34-5.47-12.37t-15.9-4h-14.3Z"/><path class="cls-1" d="M366.69,98.23H352.22a6.68,6.68,0,0,1-4-1.13A5.84,5.84,0,0,1,346,94.2l-4.75-14H310.7l-4.75,14a6.4,6.4,0,0,1-6.07,4H285.29l31.14-80.46h19.11ZM315,67.47h22l-7.4-22-1.68-4.94q-1-2.84-1.91-6.16-.88,3.37-1.82,6.24t-1.77,5Z"/><path class="cls-1" d="M388.56,71.34V98.23H369.89V17.77h28.38a46.82,46.82,0,0,1,14.61,2,28.06,28.06,0,0,1,10.05,5.55,21.65,21.65,0,0,1,5.83,8.34,28.29,28.29,0,0,1,1.88,10.38,30.53,30.53,0,0,1-1.93,11,22.17,22.17,0,0,1-5.91,8.61,27.84,27.84,0,0,1-10.08,5.6,46.18,46.18,0,0,1-14.44,2Zm0-14.08h9.72q7.29,0,10.49-3.48t3.2-9.72a14.54,14.54,0,0,0-.83-5,10.23,10.23,0,0,0-2.51-3.89,11.31,11.31,0,0,0-4.25-2.51,18.82,18.82,0,0,0-6.1-.88h-9.72Z"/><path class="cls-2" d="M63.85,91.19a12.4,12.4,0,1,0,8.77,3.63A12.32,12.32,0,0,0,63.85,91.19Z"/><path class="cls-3" d="M85.86,73.85a40,40,0,0,0-44-.06,7.09,7.09,0,0,0-2.28,2.31,6.92,6.92,0,0,0-1,3.08,7.54,7.54,0,0,0,.34,3.23,7.71,7.71,0,0,0,1.75,2.74L43.5,88a7.07,7.07,0,0,0,4.25,2.09,7.15,7.15,0,0,0,4.65-1,22.32,22.32,0,0,1,22.78,0,7.23,7.23,0,0,0,9-1.11l2.92-2.92a7,7,0,0,0,1.72-2.74,6.92,6.92,0,0,0,.37-3.2,7.29,7.29,0,0,0-1-3.08A7.09,7.09,0,0,0,85.86,73.85Z"/><path class="cls-4" d="M104.91,55.72a66,66,0,0,0-41-14.44A66.63,66.63,0,0,0,22.73,55.63a7.35,7.35,0,0,0-2,2.37,7.27,7.27,0,0,0-.8,3A7.2,7.2,0,0,0,22,66.62l2.83,2.83a7.46,7.46,0,0,0,4.71,2.12,7.33,7.33,0,0,0,4.93-1.48,48.18,48.18,0,0,1,58.55.06A7.48,7.48,0,0,0,98,71.67l0,0a7.3,7.3,0,0,0,4.71-2.12l2.83-2.86a7.38,7.38,0,0,0,1.69-2.59,7,7,0,0,0,.46-3,7.41,7.41,0,0,0-.8-3A7.25,7.25,0,0,0,104.91,55.72Z"/><path class="cls-5" d="M112.59,5.58A33.27,33.27,0,0,0,98,.23,32.82,32.82,0,0,0,82.63,2a31.11,31.11,0,0,0-16,13.52,36.32,36.32,0,0,0-2.94,6.15,36.31,36.31,0,0,0-2.95-6.17A31.09,31.09,0,0,0,44.79,2,32.73,32.73,0,0,0,29.45.23,33.45,33.45,0,0,0,14.85,5.57C6.22,11.33,0,21.37,0,35.28c0,5,1.14,10.39,4.71,14.05a17.52,17.52,0,0,0,3.16,2.74,7.27,7.27,0,0,0,8.48-.66,73.13,73.13,0,0,1,94.5.4,7.39,7.39,0,0,0,5,1.75,7.28,7.28,0,0,0,4.89-2.15L122.24,50c4-4,5.18-9.14,5.18-14.72C127.42,21.37,121.22,11.33,112.59,5.58Z"/></g></g></svg>