<svg xmlns="http://www.w3.org/2000/svg" xmlns:xlink="http://www.w3.org/1999/xlink" viewBox="0 0 121.61 121.61"><defs><style>.cls-1{fill:none;}.cls-2{fill:#50a3c7;}.cls-3{clip-path:url(#clip-path);}.cls-4{fill:#fff;}</style><clipPath id="clip-path"><rect class="cls-1" x="11.74" y="13.59" width="98.13" height="100.32"/></clipPath></defs><title>usuarios</title><g id="Layer_2" data-name="Layer 2"><g id="Layer_1-2" data-name="Layer 1"><circle class="cls-2" cx="60.8" cy="60.8" r="60.8"/><g class="cls-3"><path class="cls-4" d="M45.75,90.8,31.31,98.67A13.25,13.25,0,0,0,29,100.33a48.4,48.4,0,0,0,62.17.16,12.83,12.83,0,0,0-2.54-1.7L73.14,91a5.91,5.91,0,0,1-3.27-5.28V79.7a21.37,21.37,0,0,0,1.46-1.88,35.47,35.47,0,0,0,4.81-9.69A4.86,4.86,0,0,0,79.6,63.5V57A4.82,4.82,0,0,0,78,53.43V44.06s1.93-14.57-17.82-14.57S42.35,44.06,42.35,44.06v9.37A4.83,4.83,0,0,0,40.73,57V63.5A4.88,4.88,0,0,0,43,67.58,32.18,32.18,0,0,0,48.83,79.7v5.93a5.91,5.91,0,0,1-3.08,5.17Zm0,0"/><path class="cls-2" d="M61,14.87a48.39,48.39,0,0,0-32,85.43,13.81,13.81,0,0,1,2.29-1.63L45.75,90.8a5.9,5.9,0,0,0,3.07-5.18V79.7A32.18,32.18,0,0,1,43,67.57a4.83,4.83,0,0,1-2.24-4.07V57a4.85,4.85,0,0,1,1.61-3.59V44.06S40.43,29.48,60.16,29.48,78,44.06,78,44.06v9.37A4.84,4.84,0,0,1,79.6,57V63.5a4.86,4.86,0,0,1-3.44,4.62,35.73,35.73,0,0,1-4.81,9.69c-.54.75-1,1.38-1.46,1.88v6.07A5.9,5.9,0,0,0,73.14,91l15.48,7.73a12.63,12.63,0,0,1,2.54,1.7A48.41,48.41,0,0,0,61,14.87Zm0,0"/></g></g></g></svg>