<svg xmlns="http://www.w3.org/2000/svg" viewBox="0 0 16.61 15.57"><defs><style>.cls-1{fill:#c1272d;}</style></defs><title>x</title><g id="Layer_2" data-name="Layer 2"><g id="Layer_1-2" data-name="Layer 1"><path class="cls-1" d="M5.23,7.52.21,0H4.69a1.58,1.58,0,0,1,.73.13,1.14,1.14,0,0,1,.41.43L8.61,5.17a3.54,3.54,0,0,1,.23-.53l.3-.54,2-3.47a1.28,1.28,0,0,1,.44-.49A1.13,1.13,0,0,1,12.13,0H16.4l-5,7.31,5.23,8.26H12.13a1.24,1.24,0,0,1-.8-.24,2.07,2.07,0,0,1-.5-.57L8.07,10a3.52,3.52,0,0,1-.18.48,4.09,4.09,0,0,1-.23.42L5.38,14.76a2,2,0,0,1-.48.56,1.14,1.14,0,0,1-.75.25H0Z"/></g></g></svg>