<svg xmlns="http://www.w3.org/2000/svg" viewBox="0 0 44.79 44.81"><defs><style>.cls-1{fill:#c1272d;}</style></defs><title>buscar</title><g id="Layer_2" data-name="Layer 2"><g id="Layer_1-2" data-name="Layer 1"><path class="cls-1" d="M39.87,28.64a16.76,16.76,0,1,0-25.48-2.06L0,40.92l3.85,3.89L18.23,30.42A16.79,16.79,0,0,0,39.87,28.64ZM18.56,26.48a13.54,13.54,0,1,1,19.17,0A13.5,13.5,0,0,1,18.56,26.48Z"/><path class="cls-1" d="M37.15,22a2.29,2.29,0,0,1,.26-.37A10,10,0,0,0,35.09,8.9l-1.5,2.34A7.05,7.05,0,0,1,35.18,20a1.47,1.47,0,0,0-.24.37,2.59,2.59,0,0,0-.28.42l2.23,1.59C37,22.22,37.08,22.12,37.15,22Z"/></g></g></svg>