<svg xmlns="http://www.w3.org/2000/svg" viewBox="0 0 203.66 54.86"><defs><style>.cls-1,.cls-2,.cls-3,.cls-4{fill:#fff;}.cls-2{opacity:0.4;}.cls-3{opacity:0.6;}.cls-4{opacity:0.8;}</style></defs><title>logo-blanco</title><g id="Layer_2" data-name="Layer 2"><g id="Layer_1-2" data-name="Layer 1"><path class="cls-1" d="M101.94,28a21.87,21.87,0,0,1-1.28,7.7,16.64,16.64,0,0,1-3.6,5.82,15.62,15.62,0,0,1-5.56,3.68,19.38,19.38,0,0,1-7.18,1.28H70.83V9.5H84.31a19.39,19.39,0,0,1,7.18,1.28,15.63,15.63,0,0,1,5.56,3.68,16.64,16.64,0,0,1,3.6,5.82A21.8,21.8,0,0,1,101.94,28Zm-2.77,0a20.63,20.63,0,0,0-1.07-6.89,14.49,14.49,0,0,0-3-5.12,12.82,12.82,0,0,0-4.69-3.19,16.25,16.25,0,0,0-6.08-1.1H73.52V44.29H84.31a16.25,16.25,0,0,0,6.08-1.1A12.82,12.82,0,0,0,95.08,40a14.48,14.48,0,0,0,3-5.12A20.71,20.71,0,0,0,99.17,28Z"/><path class="cls-1" d="M112.41,29.74V46.45h-2.66V9.5h9.43q6.4,0,9.56,2.47t3.16,7.25a9.93,9.93,0,0,1-.73,3.86,9.06,9.06,0,0,1-2.1,3.07,11.21,11.21,0,0,1-3.3,2.17,14.69,14.69,0,0,1-4.36,1.11,4.24,4.24,0,0,1,1.12,1l12.72,16h-2.32a1.53,1.53,0,0,1-.72-.16,1.88,1.88,0,0,1-.59-.52l-11.83-15a2.63,2.63,0,0,0-1-.81,4,4,0,0,0-1.58-.23Zm0-2h6.42a15.21,15.21,0,0,0,4.4-.59,9.48,9.48,0,0,0,3.29-1.68,7.27,7.27,0,0,0,2.05-2.64,8.25,8.25,0,0,0,.71-3.47,6.79,6.79,0,0,0-2.59-5.85q-2.59-1.91-7.52-1.91h-6.76Z"/><path class="cls-1" d="M173.42,46.45h-6.84a3.16,3.16,0,0,1-1.89-.54,2.76,2.76,0,0,1-1-1.37l-2.25-6.63H146.93l-2.25,6.63a3,3,0,0,1-2.87,1.91h-6.89l14.73-38h9ZM149,31.91h10.39l-3.5-10.42-.8-2.34q-.46-1.34-.9-2.91-.42,1.59-.86,3t-.84,2.35Z"/><path class="cls-1" d="M183.76,33.74V46.45h-8.83V8.4h13.42a22.14,22.14,0,0,1,6.91,1A13.27,13.27,0,0,1,200,12a10.24,10.24,0,0,1,2.76,3.94,13.38,13.38,0,0,1,.89,4.91,14.44,14.44,0,0,1-.91,5.22,10.48,10.48,0,0,1-2.79,4.07,13.17,13.17,0,0,1-4.77,2.65,21.84,21.84,0,0,1-6.83,1Zm0-6.66h4.6q3.45,0,5-1.65a6.53,6.53,0,0,0,1.51-4.6,6.88,6.88,0,0,0-.39-2.38,4.84,4.84,0,0,0-1.19-1.84,5.35,5.35,0,0,0-2-1.19,8.9,8.9,0,0,0-2.89-.42h-4.6Z"/><path class="cls-2" d="M30.2,43.13a5.86,5.86,0,1,0,4.15,1.72A5.83,5.83,0,0,0,30.2,43.13Z"/><path class="cls-3" d="M40.6,34.93a18.9,18.9,0,0,0-20.83,0A3.35,3.35,0,0,0,18.7,36a3.27,3.27,0,0,0-.49,1.46A3.57,3.57,0,0,0,18.36,39a3.65,3.65,0,0,0,.83,1.3l1.38,1.37a3.34,3.34,0,0,0,2,1,3.38,3.38,0,0,0,2.2-.45,10.56,10.56,0,0,1,10.77,0,3.42,3.42,0,0,0,4.24-.52l1.38-1.38A3.31,3.31,0,0,0,42,39a3.27,3.27,0,0,0,.17-1.51A3.45,3.45,0,0,0,41.68,36,3.35,3.35,0,0,0,40.6,34.93Z"/><path class="cls-4" d="M49.62,26.35a31.19,31.19,0,0,0-19.4-6.83,31.51,31.51,0,0,0-19.46,6.78,3.48,3.48,0,0,0-.95,1.12,3.44,3.44,0,0,0-.38,1.4,3.4,3.4,0,0,0,1,2.68l1.34,1.34a3.53,3.53,0,0,0,2.23,1,3.47,3.47,0,0,0,2.33-.7,22.79,22.79,0,0,1,27.69,0,3.54,3.54,0,0,0,2.33.71h0a3.45,3.45,0,0,0,2.23-1l1.34-1.35a3.49,3.49,0,0,0,.8-1.22,3.31,3.31,0,0,0,.22-1.43,3.51,3.51,0,0,0-.38-1.41A3.43,3.43,0,0,0,49.62,26.35Z"/><path class="cls-1" d="M53.24,2.64A15.74,15.74,0,0,0,46.34.11,15.52,15.52,0,0,0,39.08,1a14.71,14.71,0,0,0-7.56,6.39,17.18,17.18,0,0,0-1.39,2.91,17.17,17.17,0,0,0-1.39-2.92A14.7,14.7,0,0,0,21.18,1,15.48,15.48,0,0,0,13.93.11,15.82,15.82,0,0,0,7,2.63C2.94,5.36,0,10.11,0,16.68a9.4,9.4,0,0,0,2.23,6.65,8.29,8.29,0,0,0,1.5,1.3,3.44,3.44,0,0,0,4-.31,34.58,34.58,0,0,1,44.69.19,3.5,3.5,0,0,0,2.39.83,3.44,3.44,0,0,0,2.31-1l.68-.67c1.91-1.87,2.45-4.32,2.45-7C60.26,10.11,57.33,5.36,53.24,2.64Z"/></g></g></svg>