<svg xmlns="http://www.w3.org/2000/svg" viewBox="0 0 340.51 91.72"><defs><style>.cls-1{fill:#4d4d4d;}.cls-2,.cls-3,.cls-4,.cls-5{fill:#c1272d;}.cls-2{opacity:0.4;}.cls-3{opacity:0.6;}.cls-4{opacity:0.8;}</style></defs><title>logo-rojo-gris</title><g id="Layer_2" data-name="Layer 2"><g id="Layer_1-2" data-name="Layer 1"><path class="cls-1" d="M170.44,46.76a36.57,36.57,0,0,1-2.14,12.88,27.82,27.82,0,0,1-6,9.74,26.11,26.11,0,0,1-9.3,6.16,32.41,32.41,0,0,1-12,2.14H118.43V15.89H141A32.42,32.42,0,0,1,153,18a26.13,26.13,0,0,1,9.3,6.16,27.83,27.83,0,0,1,6,9.74A36.44,36.44,0,0,1,170.44,46.76Zm-4.63,0A34.48,34.48,0,0,0,164,35.23a24.22,24.22,0,0,0-5-8.56,21.44,21.44,0,0,0-7.84-5.33A27.17,27.17,0,0,0,141,19.51h-18V74h18a27.17,27.17,0,0,0,10.17-1.83A21.43,21.43,0,0,0,159,66.89a24.21,24.21,0,0,0,5-8.56A34.62,34.62,0,0,0,165.81,46.76Z"/><path class="cls-1" d="M187.95,49.73V77.67h-4.45V15.89h15.76q10.7,0,16,4.13t5.28,12.12a16.61,16.61,0,0,1-1.22,6.46,15.15,15.15,0,0,1-3.51,5.13,18.74,18.74,0,0,1-5.52,3.62A24.57,24.57,0,0,1,203,49.2a7.08,7.08,0,0,1,1.88,1.75l21.26,26.72h-3.89a2.56,2.56,0,0,1-1.2-.26,3.14,3.14,0,0,1-1-.87L200.26,51.47a4.4,4.4,0,0,0-1.59-1.35,6.66,6.66,0,0,0-2.64-.39Zm0-3.32h10.74a25.43,25.43,0,0,0,7.36-1,15.84,15.84,0,0,0,5.5-2.82A12.16,12.16,0,0,0,215,38.2a13.8,13.8,0,0,0,1.18-5.81q0-6.59-4.32-9.78t-12.58-3.19H187.95Z"/><path class="cls-1" d="M289.94,77.67H278.5a5.28,5.28,0,0,1-3.17-.9,4.62,4.62,0,0,1-1.72-2.29l-3.76-11.09H245.67l-3.76,11.09a5.06,5.06,0,0,1-4.8,3.19H225.58l24.63-63.62h15.11ZM249.07,53.35h17.38L260.6,35.93,259.27,32q-.76-2.25-1.51-4.87-.7,2.66-1.44,4.93T254.93,36Z"/><path class="cls-1" d="M307.23,56.41V77.67H292.48V14.05h22.44a37,37,0,0,1,11.55,1.59A22.19,22.19,0,0,1,334.42,20,17.12,17.12,0,0,1,339,26.63a22.37,22.37,0,0,1,1.48,8.21A24.14,24.14,0,0,1,339,43.57a17.53,17.53,0,0,1-4.67,6.81,22,22,0,0,1-8,4.43,36.52,36.52,0,0,1-11.42,1.59Zm0-11.13h7.68q5.76,0,8.3-2.75t2.53-7.68a11.5,11.5,0,0,0-.65-4,8.09,8.09,0,0,0-2-3.08,8.94,8.94,0,0,0-3.36-2,14.88,14.88,0,0,0-4.82-.7h-7.68Z"/><path class="cls-2" d="M50.49,72.1A9.81,9.81,0,1,0,57.42,75,9.74,9.74,0,0,0,50.49,72.1Z"/><path class="cls-3" d="M67.89,58.4a31.59,31.59,0,0,0-34.83,0,5.61,5.61,0,0,0-1.8,1.83,5.47,5.47,0,0,0-.83,2.43,6,6,0,0,0,.27,2.56,6.1,6.1,0,0,0,1.39,2.17l2.31,2.29a5.59,5.59,0,0,0,3.36,1.66,5.65,5.65,0,0,0,3.68-.75,17.65,17.65,0,0,1,18,0,5.71,5.71,0,0,0,7.08-.88l2.31-2.31a5.54,5.54,0,0,0,1.36-2.17,5.47,5.47,0,0,0,.29-2.53,5.76,5.76,0,0,0-.8-2.43A5.61,5.61,0,0,0,67.89,58.4Z"/><path class="cls-4" d="M83,44.06A52.14,52.14,0,0,0,50.51,32.64,52.68,52.68,0,0,0,18,44a5.81,5.81,0,0,0-1.58,1.87,5.75,5.75,0,0,0-.63,2.34,5.69,5.69,0,0,0,1.68,4.48l2.24,2.24a5.9,5.9,0,0,0,3.72,1.68,5.8,5.8,0,0,0,3.89-1.17,38.1,38.1,0,0,1,46.29,0,5.91,5.91,0,0,0,3.89,1.19l0,0A5.77,5.77,0,0,0,81.23,55l2.24-2.26a5.84,5.84,0,0,0,1.34-2,5.53,5.53,0,0,0,.37-2.39,5.86,5.86,0,0,0-.63-2.36A5.73,5.73,0,0,0,83,44.06Z"/><path class="cls-5" d="M89,4.41A26.31,26.31,0,0,0,77.48.18,26,26,0,0,0,65.34,1.62,24.6,24.6,0,0,0,52.7,12.31a28.72,28.72,0,0,0-2.32,4.87,28.71,28.71,0,0,0-2.33-4.88A24.58,24.58,0,0,0,35.42,1.62,25.88,25.88,0,0,0,23.28.18,26.45,26.45,0,0,0,11.75,4.4C4.92,9,0,16.9,0,27.9c0,4,.9,8.22,3.72,11.11a13.85,13.85,0,0,0,2.5,2.17,5.75,5.75,0,0,0,6.7-.52A57.82,57.82,0,0,1,87.65,41a5.85,5.85,0,0,0,4,1.39,5.75,5.75,0,0,0,3.87-1.7l1.14-1.12c3.19-3.12,4.1-7.23,4.1-11.64C100.76,16.9,95.85,9,89,4.41Z"/></g></g></svg>