<svg xmlns="http://www.w3.org/2000/svg" viewBox="0 0 309.06 86"><defs><style>.cls-1,.cls-2,.cls-3,.cls-4{fill:#c1282d;}.cls-1{opacity:0.4;}.cls-2{opacity:0.6;}.cls-3{opacity:0.8;}.cls-5{fill:#fff;}</style></defs><title>logo-tual-rojo-blanco</title><g id="Layer_2" data-name="Layer 2"><g id="Layer_1-2" data-name="Layer 1"><path class="cls-1" d="M47.34,67.61a9.18,9.18,0,1,0,6.5,2.69A9.13,9.13,0,0,0,47.34,67.61Z"/><path class="cls-2" d="M63.65,54.75a29.59,29.59,0,0,0-32.65,0,5.11,5.11,0,0,0-1.69,1.71,5,5,0,0,0-.78,2.28,5.65,5.65,0,0,0,.25,2.4,5.91,5.91,0,0,0,1.3,2l2.17,2.14a5.41,5.41,0,0,0,6.6.85,16.53,16.53,0,0,1,16.89,0,5.37,5.37,0,0,0,6.64-.82l2.16-2.17a5.42,5.42,0,0,0,1.56-4.4,5.59,5.59,0,0,0-.76-2.29A5.3,5.3,0,0,0,63.65,54.75Z"/><path class="cls-3" d="M77.78,41.31a48.88,48.88,0,0,0-30.42-10.7A49.38,49.38,0,0,0,16.85,41.24,5.56,5.56,0,0,0,15.36,43a5.48,5.48,0,0,0-.59,2.19,5.77,5.77,0,0,0,.32,2.26,5.6,5.6,0,0,0,1.26,1.94l2.1,2.1a5.5,5.5,0,0,0,3.49,1.57A5.4,5.4,0,0,0,25.59,52,35.71,35.71,0,0,1,69,52a5.52,5.52,0,0,0,3.66,1.12l0,0a5.45,5.45,0,0,0,3.49-1.57l2.1-2.13a5.62,5.62,0,0,0,1.26-1.91,5.36,5.36,0,0,0,.34-2.24,5.42,5.42,0,0,0-.6-2.21A5.23,5.23,0,0,0,77.78,41.31Z"/><path class="cls-4" d="M83.47,4.14a24.58,24.58,0,0,0-10.82-4A24.32,24.32,0,0,0,61.26,1.52a23,23,0,0,0-11.84,10,26.33,26.33,0,0,0-2.18,4.56,26.54,26.54,0,0,0-2.18-4.58,23,23,0,0,0-11.85-10A24.27,24.27,0,0,0,21.83.17,24.74,24.74,0,0,0,11,4.13C4.61,8.4,0,15.84,0,26.16c0,3.72.84,7.7,3.49,10.42a13.34,13.34,0,0,0,2.35,2,5.39,5.39,0,0,0,6.28-.49,54.24,54.24,0,0,1,70.07.29,5.43,5.43,0,0,0,7.37-.29l1.07-1c3-2.93,3.84-6.78,3.84-10.91C94.47,15.84,89.87,8.4,83.47,4.14Z"/><path class="cls-5" d="M155.87,17.33V21H135V76.7h-4.28V21h-21V17.33Z"/><path class="cls-5" d="M185.58,73.63a18.73,18.73,0,0,0,7.66-1.49A16.33,16.33,0,0,0,199,68a18,18,0,0,0,3.59-6.23A23.44,23.44,0,0,0,203.79,54V17.33h4.28V54a26.71,26.71,0,0,1-1.55,9.17,22,22,0,0,1-4.47,7.42,20.71,20.71,0,0,1-7.09,5,25.34,25.34,0,0,1-18.76,0,20.61,20.61,0,0,1-7.09-5,22,22,0,0,1-4.47-7.42A26.71,26.71,0,0,1,163.09,54V17.33h4.32V54a23.44,23.44,0,0,0,1.24,7.74A18.16,18.16,0,0,0,172.22,68a16.33,16.33,0,0,0,5.7,4.15A18.54,18.54,0,0,0,185.58,73.63Z"/><path class="cls-5" d="M269.79,76.7h-11a5.08,5.08,0,0,1-3-.86,4.41,4.41,0,0,1-1.66-2.21L250.49,63H227.24l-3.6,10.65A4.89,4.89,0,0,1,219,76.7H207.94l23.67-61.14h14.52ZM230.52,53.33h16.7l-5.63-16.75-1.28-3.75q-.74-2.16-1.44-4.68-.68,2.57-1.39,4.74c-.47,1.46-.92,2.72-1.34,3.78Z"/><path class="cls-5" d="M286.41,65.37h22.65V76.7H272.22V15.56h14.19Z"/></g></g></svg>