<svg xmlns="http://www.w3.org/2000/svg" viewBox="0 0 136.06 37.86"><defs><style>.cls-1{fill:#fff;}</style></defs><title>solido-blanco</title><g id="Layer_2" data-name="Layer 2"><g id="Layer_1-2" data-name="Layer 1"><path class="cls-1" d="M20.84,29.76a4,4,0,1,0,2.86,1.19A4,4,0,0,0,20.84,29.76Z"/><path class="cls-1" d="M28,24.1a13,13,0,0,0-14.38,0,2.31,2.31,0,0,0-.74.75,2.26,2.26,0,0,0-.34,1,2.46,2.46,0,0,0,.11,1.05,2.52,2.52,0,0,0,.57.89l1,.94a2.31,2.31,0,0,0,1.39.68,2.33,2.33,0,0,0,1.52-.31,7.29,7.29,0,0,1,7.43,0,2.36,2.36,0,0,0,2.92-.36l1-1a2.28,2.28,0,0,0,.56-.89,2.26,2.26,0,0,0,.12-1,2.38,2.38,0,0,0-.33-1A2.31,2.31,0,0,0,28,24.1Z"/><path class="cls-1" d="M34.24,18.19a21.52,21.52,0,0,0-13.39-4.71A21.75,21.75,0,0,0,7.42,18.16a2.4,2.4,0,0,0-.65.77,2.37,2.37,0,0,0-.26,1,2.35,2.35,0,0,0,.69,1.85l.92.92a2.43,2.43,0,0,0,1.54.69,2.39,2.39,0,0,0,1.61-.48,15.73,15.73,0,0,1,19.11,0,2.44,2.44,0,0,0,1.61.49h0a2.38,2.38,0,0,0,1.54-.69l.92-.93a2.41,2.41,0,0,0,.55-.84,2.28,2.28,0,0,0,.15-1,2.42,2.42,0,0,0-.26-1A2.37,2.37,0,0,0,34.24,18.19Z"/><path class="cls-1" d="M36.75,1.82A10.86,10.86,0,0,0,32,.08a10.71,10.71,0,0,0-5,.59,10.15,10.15,0,0,0-5.21,4.41,11.85,11.85,0,0,0-1,2,11.85,11.85,0,0,0-1-2A10.15,10.15,0,0,0,14.62.67a10.68,10.68,0,0,0-5-.59A10.92,10.92,0,0,0,4.85,1.82,11.2,11.2,0,0,0,0,11.51,6.48,6.48,0,0,0,1.54,16.1a5.72,5.72,0,0,0,1,.89,2.37,2.37,0,0,0,2.77-.22,23.87,23.87,0,0,1,30.84.13,2.41,2.41,0,0,0,1.65.57,2.38,2.38,0,0,0,1.6-.7l.47-.46a6.36,6.36,0,0,0,1.69-4.8A11.18,11.18,0,0,0,36.75,1.82Z"/><path class="cls-1" d="M68.62,7.63V9.23H59.44V33.77H57.56V9.23H48.32V7.63Z"/><path class="cls-1" d="M81.7,32.42a8.27,8.27,0,0,0,3.37-.66,7.22,7.22,0,0,0,2.52-1.82,8,8,0,0,0,1.58-2.74,10.39,10.39,0,0,0,.54-3.41V7.63H91.6V23.79a11.69,11.69,0,0,1-.68,4,9.64,9.64,0,0,1-2,3.27,9.07,9.07,0,0,1-3.12,2.19,11.13,11.13,0,0,1-8.26,0,9.07,9.07,0,0,1-3.12-2.19,9.63,9.63,0,0,1-2-3.27,11.69,11.69,0,0,1-.68-4V7.63h1.9V23.77a10.38,10.38,0,0,0,.54,3.41,8.1,8.1,0,0,0,1.57,2.74,7.23,7.23,0,0,0,2.51,1.83A8.17,8.17,0,0,0,81.7,32.42Z"/><path class="cls-1" d="M118.77,33.77h-4.84a2.23,2.23,0,0,1-1.34-.38,2,2,0,0,1-.73-1l-1.59-4.69H100l-1.59,4.69a2.14,2.14,0,0,1-2,1.35H91.54L102,6.85h6.39ZM101.48,23.48h7.35l-2.48-7.37-.56-1.65q-.32-1-.64-2.06-.3,1.13-.61,2.09T104,16.14Z"/><path class="cls-1" d="M126.09,28.78h10v5H119.84V6.85h6.24Z"/></g></g></svg>