<svg xmlns="http://www.w3.org/2000/svg" viewBox="0 0 44.1 57.67"><defs><style>.cls-1{fill:#30383b;fill-rule:evenodd;}</style></defs><title>reporte</title><g id="Layer_2" data-name="Layer 2"><g id="Layer_1-2" data-name="Layer 1"><path class="cls-1" d="M3.62,1.32h9.5V.6a.6.6,0,0,1,.6-.6H30.38a.6.6,0,0,1,.6.6v.72h9.5A3.61,3.61,0,0,1,43,2.38h0A3.6,3.6,0,0,1,44.1,4.94V54.06a3.62,3.62,0,0,1-3.62,3.61H3.62a3.6,3.6,0,0,1-2.55-1.06h0A3.6,3.6,0,0,1,0,54.06V4.94A3.63,3.63,0,0,1,3.62,1.32Zm7.64,35.39H9.36a.6.6,0,0,0,0,1.2h1.89a.6.6,0,1,0,0-1.2Zm0-6.91H9.36a.6.6,0,0,0,0,1.21h1.89a.6.6,0,0,0,0-1.21Zm0-6.5H9.36a.6.6,0,0,0,0,1.21h1.89a.6.6,0,0,0,0-1.21Zm0-6.5H9.36a.6.6,0,0,0,0,1.21h1.89a.6.6,0,0,0,0-1.21Zm23,0H15.42a.6.6,0,1,0,0,1.21H34.27a.6.6,0,1,0,0-1.21Zm0,6.5H15.42a.6.6,0,1,0,0,1.21H34.27a.6.6,0,1,0,0-1.21ZM30,36.71H15.42a.6.6,0,1,0,0,1.2H30a.6.6,0,1,0,0-1.2Zm4.31-6.9H15.42a.6.6,0,1,0,0,1.2H34.27a.6.6,0,1,0,0-1.2ZM14.33,1.92V8H29.78V1.21H14.33v.72ZM5.1,5.32h8V2.53H3.62A2.41,2.41,0,0,0,1.21,4.94V54.06a2.41,2.41,0,0,0,.7,1.7h0a2.4,2.4,0,0,0,1.7.71H40.49a2.42,2.42,0,0,0,2.41-2.41V4.94a2.4,2.4,0,0,0-.71-1.7h0a2.39,2.39,0,0,0-1.7-.7H31V5.32h8a.6.6,0,0,1,.6.6V53.07a.6.6,0,0,1-.6.6H5.1a.6.6,0,0,1-.6-.6V5.92a.6.6,0,0,1,.6-.6Zm8,1.21H5.7V52.47H38.4V6.53H31v2a.6.6,0,0,1-.6.6H13.72a.6.6,0,0,1-.6-.6Z"/></g></g></svg>