<svg xmlns="http://www.w3.org/2000/svg" viewBox="0 0 51.53 51.53"><defs><style>.cls-1{fill:#94ba3a;}.cls-2{fill:#fff;fill-rule:evenodd;}</style></defs><title>ver-resumen</title><g id="Layer_2" data-name="Layer 2"><g id="Layer_1-2" data-name="Layer 1"><circle class="cls-1" cx="25.76" cy="25.76" r="25.76"/><path class="cls-2" d="M17.64,10.88l.44.43h.81l1-1a.38.38,0,0,1,.54,0l1,1h.94l1-1a.38.38,0,0,1,.54,0l1,1h.94l1-1a.38.38,0,0,1,.54,0l1,1h.94l1-1a.38.38,0,0,1,.54,0l1,1h.94l1-1a.38.38,0,0,1,.54,0l1,1h.79l.12-.12a.39.39,0,0,1,.29-.13.38.38,0,0,1,.38.38V40.18a.38.38,0,0,1-.38.38.39.39,0,0,1-.29-.13l-.12-.12H35.3l-1,1a.38.38,0,0,1-.54,0l-1-1h-.95l-1,1h-.55L30,41l-.69-.68h-.95l-.6.59-.39.39a.38.38,0,0,1-.54,0l-.45-.44-.55-.54h-.94l-.47.46-.52.51h-.55l-1-1h-.94l-1,1h-.55l-1-1h-.94l-.3.3a.38.38,0,0,1-.67-.25V11.13a.38.38,0,0,1,.67-.25L23.8,40.31l.64-.63a.38.38,0,0,1,.29-.13H26a.38.38,0,0,1,.27.11l.84.83.82-.81a.39.39,0,0,1,.29-.13h1.26a.38.38,0,0,1,.27.11l.84.83.82-.81a.39.39,0,0,1,.29-.13h1.26a.38.38,0,0,1,.27.11l.84.83.82-.81a.38.38,0,0,1,.29-.13h1V12.1h-1a.38.38,0,0,1-.27-.11L34,11.16l-.82.81a.38.38,0,0,1-.29.13H31.68a.38.38,0,0,1-.27-.11l-.84-.83-.82.81a.38.38,0,0,1-.29.13H28.2a.38.38,0,0,1-.27-.11l-.84-.83-.82.81a.38.38,0,0,1-.29.13H24.73a.38.38,0,0,1-.27-.11l-.84-.83-.82.81a.38.38,0,0,1-.29.13H21.26A.38.38,0,0,1,21,12l-.84-.83-.84.83h0a.39.39,0,0,1-.27.11H17.93a.37.37,0,0,1-.2,0V39.55H19a.38.38,0,0,1,.27.11l.84.83.82-.81a.39.39,0,0,1,.29-.13h1.26a.38.38,0,0,1,.27.11l.84.83.18-.17L17.64,10.88ZM30.48,20.7h-7.1a.38.38,0,1,0,0,.77h7.1a.38.38,0,1,0,0-.77ZM29.19,35.26h3.32a.38.38,0,0,0,0-.77H29.19a.38.38,0,0,0,0,.77Zm-7.85,0h4.94a.38.38,0,1,0,0-.77H21.34a.38.38,0,0,0,0,.77Zm0-4.94H32.51a.38.38,0,0,0,0-.77H21.34a.38.38,0,0,0,0,.77Zm11.17-4H21.34a.38.38,0,0,0,0,.77H32.51a.38.38,0,0,0,0-.77ZM21.34,17.15H32.51a.38.38,0,0,0,0-.77H21.34a.38.38,0,0,0,0,.77Z"/></g></g></svg>